<svg aria-hidden="true" style="position: absolute; width: 0; height: 0; overflow: hidden;" version="1.1" xmlns="http://www.w3.org/2000/svg" xmlns:xlink="http://www.w3.org/1999/xlink">
<defs>
<symbol id="cup" viewBox="0 0 28 32">
<path d="M28.361 2.088c-0.118-0.401-0.318-0.771-0.585-1.085s-0.597-0.565-0.965-0.737c-0.366-0.178-0.767-0.267-1.171-0.263h-22.77c-0.404-0.024-0.807 0.061-1.171 0.246-0.377 0.173-0.712 0.431-0.981 0.755-0.267 0.314-0.467 0.683-0.585 1.083-0.123 0.397-0.16 0.817-0.111 1.231l2.595 22.972c0.174 1.572 0.902 3.019 2.041 4.069 1.114 1.049 2.562 1.633 4.067 1.641h11.076c1.509-0.007 2.963-0.591 4.082-1.641 1.124-1.060 1.843-2.505 2.025-4.069l1.408-12.913v-0.197l1.092-9.845c0.061-0.415 0.045-0.838-0.047-1.247zM12.379 27.274h-1.582c-1.025-0.059-2.001-0.475-2.769-1.181-0.766-0.715-1.269-1.684-1.424-2.74l-0.38-2.822c-0.049-0.43 0.067-0.863 0.322-1.206s0.63-0.569 1.043-0.629 0.834 0.050 1.17 0.307c0.336 0.257 0.562 0.64 0.629 1.068l0.38 2.789c0.043 0.305 0.188 0.584 0.411 0.788 0.221 0.21 0.507 0.333 0.807 0.345h1.582c0.42 0 0.822 0.173 1.119 0.481s0.463 0.725 0.463 1.16-0.167 0.853-0.463 1.16c-0.297 0.308-0.699 0.481-1.119 0.481h-0.19zM25.038 12.13c-3.339 0.673-6.187 0.804-9.209-1.641-3.75-3.068-8.291-2.084-12.659-0.476l-0.791-6.957c-0.016-0.070-0.016-0.143 0-0.213 0.022-0.069 0.060-0.131 0.111-0.18 0.037-0.061 0.093-0.107 0.158-0.131 0.062-0.018 0.128-0.018 0.19 0h22.975c0.059 0.034 0.113 0.079 0.158 0.131 0.047 0.049 0.079 0.113 0.095 0.18 0.024 0.075 0.024 0.155 0 0.23l-1.029 9.057z"></path>
</symbol><symbol id="icon-pie-chart-02" viewBox="0 0 32 32">
<path fill="none" stroke="#323f47" stroke-width="2.6667" stroke-miterlimit="4" stroke-linecap="round" stroke-linejoin="round" style="stroke: var(--color1, #323f47)" d="M22.933 18.667c0.369 0 0.554 0 0.704 0.082 0.123 0.068 0.238 0.195 0.293 0.324 0.067 0.157 0.050 0.324 0.016 0.659-0.174 1.733-0.77 3.404-1.744 4.861-1.172 1.754-2.838 3.121-4.787 3.929s-4.094 1.019-6.163 0.607-3.97-1.427-5.462-2.919c-1.492-1.492-2.508-3.392-2.919-5.462s-0.2-4.214 0.607-6.163c0.807-1.949 2.175-3.615 3.929-4.787 1.457-0.974 3.128-1.57 4.861-1.744 0.334-0.034 0.502-0.050 0.659 0.016 0.13 0.055 0.257 0.17 0.324 0.293 0.082 0.15 0.082 0.334 0.082 0.704v8.533c0 0.373 0 0.56 0.073 0.703 0.064 0.125 0.166 0.227 0.291 0.291 0.143 0.073 0.329 0.073 0.703 0.073h8.533z"></path>
<path fill="none" stroke="#9be1a0" stroke-width="2.6667" stroke-miterlimit="4" stroke-linecap="round" stroke-linejoin="round" style="stroke: var(--color2, #9be1a0)" d="M18.667 3.733c0-0.369 0-0.554 0.082-0.704 0.068-0.123 0.195-0.238 0.324-0.293 0.157-0.067 0.324-0.050 0.659-0.016 2.438 0.245 4.73 1.323 6.478 3.071s2.826 4.040 3.071 6.478c0.033 0.334 0.050 0.502-0.016 0.659-0.055 0.13-0.17 0.257-0.293 0.324-0.15 0.082-0.334 0.082-0.704 0.082h-8.533c-0.373 0-0.56 0-0.703-0.073-0.125-0.064-0.227-0.166-0.291-0.291-0.073-0.143-0.073-0.329-0.073-0.703v-8.533z"></path>
</symbol>
</defs>
</svg>


